<svg xmlns="http://www.w3.org/2000/svg" viewBox="0 0 64 64" width="64" height="64" role="img" aria-label="Pest control">
  <rect width="64" height="64" rx="14" fill="#7c3aed"/>
  <path d="M32 8l21 7.5v13.8C53 42 44.4 51.6 32 56 19.6 51.6 11 42 11 29.3V15.5z" fill="#c4b5fd"/>
  <g fill="#7c3aed">
    <ellipse cx="32" cy="34" rx="7.5" ry="9.5"/>
    <circle cx="32" cy="22.5" r="4.5"/>
  </g>
  <g fill="none" stroke="#7c3aed" stroke-width="2.6" stroke-linecap="round">
    <path d="M24 27l-4-3M40 27l4-3M23.5 34h-5M40.5 34h5M24 41l-4 3M40 41l4 3M29.5 19l-2.5-4M34.5 19l2.5-4"/>
  </g>
</svg>
